<?xml version="1.0" encoding="utf-8"?>
<!-- Generator: Adobe Illustrator 16.0.3, SVG Export Plug-In . SVG Version: 6.00 Build 0)  -->
<!DOCTYPE svg PUBLIC "-//W3C//DTD SVG 1.1//EN" "http://www.w3.org/Graphics/SVG/1.1/DTD/svg11.dtd">
<svg version="1.1" id="Layer_1" xmlns="http://www.w3.org/2000/svg" xmlns:xlink="http://www.w3.org/1999/xlink"
	 width="50px" height="50px" viewBox="0 0 138.346 134.916"
	 xml:space="preserve">
<g>
	<g>
		<g>
			<g>
				<path fill="#3F3F3F" d="M27.142,134.916c-5.262,0-9.528-4.266-9.528-9.528v-3.807H36.67v3.807
					C36.67,130.65,32.404,134.916,27.142,134.916z"/>
			</g>
		</g>
		<g>
			<path fill="#515151" d="M20.843,132.533c1.679,1.482,3.883,2.383,6.299,2.383s4.62-0.9,6.299-2.383v-10.952H20.843V132.533z"/>
		</g>
		<g>
			<g>
				<polygon fill="#353535" points="36.67,124.731 33.441,124.242 33.441,125.545 				"/>
			</g>
			<g>
				<path fill="#353535" d="M20.843,128.721v-5.62l-3.229-0.326v2.613c0,1.403,0.306,2.733,0.85,3.933L20.843,128.721z"/>
			</g>
			<g>
				<polygon fill="#444444" points="33.441,124.242 20.843,123.101 20.843,128.721 33.441,125.545 				"/>
			</g>
		</g>
	</g>
	<g>
		<g>
			<g>
				<path fill="#3F3F3F" d="M112.871,134.916c5.263,0,9.528-4.266,9.528-9.528v-3.807h-19.057v3.807
					C103.342,130.65,107.608,134.916,112.871,134.916z"/>
			</g>
		</g>
		<g>
			<path fill="#515151" d="M119.17,132.533c-1.68,1.482-3.884,2.383-6.3,2.383c-2.415,0-4.62-0.9-6.3-2.383v-10.952h12.6V132.533z"
				/>
		</g>
		<g>
			<g>
				<polygon fill="#353535" points="103.342,124.731 106.571,124.242 106.571,125.545 				"/>
			</g>
			<g>
				<path fill="#353535" d="M119.17,128.721v-5.62l3.229-0.326v2.613c0,1.403-0.306,2.733-0.85,3.933L119.17,128.721z"/>
			</g>
			<g>
				<polygon fill="#444444" points="106.571,124.242 119.17,123.101 119.17,128.721 106.571,125.545 				"/>
			</g>
		</g>
	</g>
	<g>
		<path fill="#6a6b6b" d="M126.678,119.732c0,2.751-2.25,5.001-5,5.001H18.335c-2.75,0-5-2.25-5-5.001V9.723c0-2.75,2.25-5,5-5
			h103.343c2.75,0,5,2.25,5,5V119.732z"/>
	</g>
	<g>
		<path fill="#6a6b6b" d="M121.678,88.063H18.335c-2.75,0-5-2.25-5-5.001v36.67c0,2.751,2.25,5.001,5,5.001h103.343
			c2.75,0,5-2.25,5-5.001v-36.67C126.678,85.813,124.428,88.063,121.678,88.063z"/>
	</g>
	<g>
		<path fill="#4F4D3B" d="M116.677,25.558c0,1.375-1.125,2.5-2.5,2.5H25.836c-1.375,0-2.5-1.125-2.5-2.5V13.89
			c0-1.375,1.125-2.5,2.5-2.5h88.341c1.375,0,2.5,1.125,2.5,2.5V25.558z"/>
	</g>
	<g>
		<g>
			<path fill="#7A7763" d="M25.836,26.391c-0.452,0-0.833-0.381-0.833-0.833V13.89c0-0.451,0.381-0.833,0.833-0.833h88.341
				c0.452,0,0.833,0.382,0.833,0.833v11.668c0,0.452-0.381,0.833-0.833,0.833H25.836z"/>
		</g>
	</g>
	<g>
		<path fill="#4F4D3B" d="M122.511,78.896c0,1.375-1.125,2.501-2.501,2.501H20.002c-1.375,0-2.5-1.126-2.5-2.501V33.892
			c0-1.375,1.125-2.5,2.5-2.5H120.01c1.376,0,2.501,1.125,2.501,2.5V78.896z"/>
	</g>
	<g>
		<g>
			<path fill="#77BFBF" d="M20.002,79.729c-0.452,0-0.833-0.382-0.833-0.834V33.892c0-0.452,0.381-0.833,0.833-0.833H120.01
				c0.452,0,0.834,0.381,0.834,0.833v45.004c0,0.452-0.382,0.834-0.834,0.834H20.002z"/>
		</g>
	</g>
	<g>
		<g>
			<path fill="#9CD3D1" d="M24.046,58.061c-0.69,0-1.25-0.56-1.25-1.25V40.177c-0.014-0.313-0.01-1.497,0.791-2.365
				c0.366-0.396,1.031-0.868,2.126-0.868h19.708c0.69,0,1.25,0.56,1.25,1.25s-0.56,1.25-1.25,1.25H25.713
				c-0.11,0-0.244,0.017-0.287,0.063c-0.092,0.097-0.139,0.378-0.133,0.544L25.3,40.11l-0.003,0.032v16.668
				C25.297,57.501,24.737,58.061,24.046,58.061z"/>
		</g>
	</g>
	<g>
		<g>
			<path fill="#9CD3D1" d="M77.385,58.061c-0.69,0-1.25-0.56-1.25-1.25V40.177c-0.015-0.313-0.01-1.497,0.791-2.365
				c0.366-0.396,1.031-0.868,2.126-0.868h19.707c0.691,0,1.251,0.56,1.251,1.25s-0.56,1.25-1.251,1.25H79.052
				c-0.11,0-0.244,0.017-0.288,0.063c-0.092,0.097-0.139,0.378-0.132,0.544l0.006,0.061l-0.003,0.032v16.668
				C78.635,57.501,78.075,58.061,77.385,58.061z"/>
		</g>
	</g>
	<g>
		<g>
			<rect x="69.173" y="31.392" fill="#4F4D3B" width="1.667" height="50.005"/>
		</g>
	</g>
	<g>
		<polygon fill="#848927" points="13.334,91.396 23.335,91.396 13.334,89.661 		"/>
	</g>
	<g>
		<rect x="13.334" y="91.396" fill="#F1A13E" width="10.001" height="6.668"/>
	</g>
	<g>
		<polygon fill="#848927" points="126.678,91.396 116.677,91.396 126.678,89.661 		"/>
	</g>
	<g>
		<rect x="116.677" y="91.396" fill="#F1A13E" width="10.001" height="6.668"/>
	</g>
	<g>
		<g>
			<rect x="46.671" y="91.396" fill="#7C7C21" width="20.002" height="2.181"/>
		</g>
		<g>
			<rect x="73.34" y="91.396" fill="#7C7C21" width="20.002" height="2.181"/>
		</g>
		<g>
			<rect x="46.671" y="94.73" fill="#7C7C21" width="20.002" height="2.181"/>
		</g>
		<g>
			<rect x="73.34" y="94.73" fill="#7C7C21" width="20.002" height="2.181"/>
		</g>
		<g>
			<rect x="46.671" y="98.064" fill="#7C7C21" width="20.002" height="2.181"/>
		</g>
		<g>
			<rect x="73.34" y="98.064" fill="#7C7C21" width="20.002" height="2.181"/>
		</g>
	</g>
	<g>
		<g>
			<g>
				<path fill="#6B6851" d="M44.372,113.516c0,0.917-0.75,1.667-1.667,1.667H24.467c-0.917,0-1.667-0.75-1.667-1.667v-7.567
					c0-0.917,0.75-1.667,1.667-1.667h18.238c0.917,0,1.667,0.75,1.667,1.667V113.516z"/>
			</g>
		</g>
		<g>
			<g>
				<path fill="#E2E1CF" d="M43.837,113.065c0,0.917-0.75,1.667-1.667,1.667h-6.667c-0.917,0-1.667-0.75-1.667-1.667v-6.667
					c0-0.917,0.75-1.667,1.667-1.667h6.667c0.917,0,1.667,0.75,1.667,1.667V113.065z"/>
			</g>
			<g>
				<path fill="#EFEEE6" d="M35.129,109.971c-0.23,0-0.417-0.187-0.417-0.416v-2.588c0-0.913,0.745-1.265,1.246-1.278h3.597
					c0.23,0,0.417,0.187,0.417,0.416c0,0.23-0.187,0.417-0.417,0.417h-3.585c-0.148,0.008-0.423,0.078-0.423,0.445v2.588
					C35.546,109.784,35.359,109.971,35.129,109.971z"/>
			</g>
		</g>
		<g>
			<g>
				<path fill="#E2E1CF" d="M33.336,113.065c0,0.917-0.75,1.667-1.667,1.667h-6.667c-0.917,0-1.667-0.75-1.667-1.667v-6.667
					c0-0.917,0.75-1.667,1.667-1.667h6.667c0.917,0,1.667,0.75,1.667,1.667V113.065z"/>
			</g>
			<g>
				<path fill="#EFEEE6" d="M24.628,109.971c-0.23,0-0.417-0.187-0.417-0.416v-2.588c0-0.913,0.744-1.265,1.245-1.278h3.597
					c0.23,0,0.417,0.187,0.417,0.416c0,0.23-0.187,0.417-0.417,0.417h-3.585c-0.148,0.008-0.423,0.078-0.423,0.445v2.588
					C25.045,109.784,24.858,109.971,24.628,109.971z"/>
			</g>
		</g>
	</g>
	<g>
		<g>
			<g>
				<path fill="#6B6851" d="M116.677,113.516c0,0.917-0.75,1.667-1.667,1.667H96.772c-0.916,0-1.666-0.75-1.666-1.667v-7.567
					c0-0.917,0.75-1.667,1.666-1.667h18.238c0.917,0,1.667,0.75,1.667,1.667V113.516z"/>
			</g>
		</g>
		<g>
			<g>
				<path fill="#E2E1CF" d="M116.142,113.065c0,0.917-0.75,1.667-1.667,1.667h-6.667c-0.917,0-1.667-0.75-1.667-1.667v-6.667
					c0-0.917,0.75-1.667,1.667-1.667h6.667c0.917,0,1.667,0.75,1.667,1.667V113.065z"/>
			</g>
			<g>
				<path fill="#EFEEE6" d="M107.434,109.971c-0.23,0-0.416-0.187-0.416-0.416v-2.588c0-0.913,0.744-1.265,1.244-1.278h3.598
					c0.23,0,0.416,0.187,0.416,0.416c0,0.23-0.186,0.417-0.416,0.417h-3.586c-0.148,0.008-0.423,0.078-0.423,0.445v2.588
					C107.851,109.784,107.665,109.971,107.434,109.971z"/>
			</g>
		</g>
		<g>
			<g>
				<path fill="#E2E1CF" d="M105.641,113.065c0,0.917-0.75,1.667-1.666,1.667h-6.668c-0.916,0-1.666-0.75-1.666-1.667v-6.667
					c0-0.917,0.75-1.667,1.666-1.667h6.668c0.916,0,1.666,0.75,1.666,1.667V113.065z"/>
			</g>
			<g>
				<path fill="#EFEEE6" d="M96.933,109.971c-0.229,0-0.417-0.187-0.417-0.416v-2.588c0-0.913,0.745-1.265,1.246-1.278h3.597
					c0.229,0,0.417,0.187,0.417,0.416c0,0.23-0.188,0.417-0.417,0.417h-3.586c-0.147,0.008-0.423,0.078-0.423,0.445v2.588
					C97.35,109.784,97.164,109.971,96.933,109.971z"/>
			</g>
		</g>
	</g>
	<g>
		<g>
			<path fill="#6a6b6b" d="M140.012,59.728c0,0.917-0.75,1.667-1.666,1.667h-6.668c-0.916,0-1.666-0.75-1.666-1.667V43.06
				c0-0.917,0.75-1.667,1.666-1.667h6.668c0.916,0,1.666,0.75,1.666,1.667V59.728z"/>
		</g>
		<g>
			<g>
				<path fill="#787C1E" d="M124.937,64.677h7.531c0.837,0,1.573-0.315,2.13-0.91c1.389-1.489,1.275-4.297,1.248-4.743V42.756
					c0-2.844-2.033-4.102-3.107-4.369l-0.1-0.024h-7.702c-0.46,0-0.833,0.373-0.833,0.833s0.373,0.833,0.833,0.833h7.479
					c0.382,0.128,1.762,0.729,1.762,2.728v16.323l0.002,0.029c0.047,0.69-0.008,2.673-0.803,3.522
					c-0.242,0.259-0.531,0.379-0.909,0.379h-7.531c-0.46,0-0.833,0.373-0.833,0.834C124.104,64.304,124.477,64.677,124.937,64.677z"
					/>
			</g>
		</g>
	</g>
	<g>
		<g>
			<path fill="#6a6b6b" d="M0,59.728c0,0.917,0.75,1.667,1.667,1.667h6.667c0.917,0,1.667-0.75,1.667-1.667V43.06
				c0-0.917-0.75-1.667-1.667-1.667H1.667C0.75,41.393,0,42.143,0,43.06V59.728z"/>
		</g>
		<g>
			<g>
				<path fill="#787C1E" d="M15.076,64.677H7.544c-0.837,0-1.573-0.315-2.129-0.91c-1.39-1.489-1.276-4.297-1.248-4.743V42.756
					c0-2.844,2.033-4.102,3.107-4.369l0.099-0.024h7.702c0.46,0,0.833,0.373,0.833,0.833s-0.373,0.833-0.833,0.833H7.597
					c-0.382,0.128-1.763,0.729-1.763,2.728v16.323l-0.002,0.029c-0.046,0.69,0.008,2.673,0.803,3.522
					c0.242,0.259,0.531,0.379,0.909,0.379h7.531c0.46,0,0.833,0.373,0.833,0.834C15.909,64.304,15.536,64.677,15.076,64.677z"/>
			</g>
		</g>
	</g>
</g>
</svg>
